<?xml version="1.0" encoding="utf-8"?>
<!-- Generator: Adobe Illustrator 24.1.2, SVG Export Plug-In . SVG Version: 6.00 Build 0)  -->
<svg version="1.1" id="Layer_1" xmlns="http://www.w3.org/2000/svg" xmlns:xlink="http://www.w3.org/1999/xlink" x="0px" y="0px"
	 viewBox="0 0 400 400" style="enable-background:new 0 0 400 400;" xml:space="preserve">
<polygon points="106.3,102.7 104.5,100.3 195.5,45.8 197.4,48.2 "/>
<polygon points="298.4,291.8 295,291 347.5,203.9 350.9,204.7 "/>
<polygon points="218.8,104.8 216.7,102.6 302.5,37.5 304.5,39.7 "/>
<polygon points="294.1,183.5 292,180.3 360.7,103.4 362.8,106.6 "/>
<polygon points="110.3,363.3 108.2,361.1 249.1,232.8 251.2,235 "/>
<polygon points="38.1,292.2 36,290 172.8,155.6 174.9,157.8 "/>
<path d="M106,375l-81-79.9l1.4-114.6l77.5-80.2l112.7,2l79.1,80.2l2.8,110l-80.6,79.1L106,375z M36.4,290.3l74.1,73l102.5-3.2
	l73.9-72.4l-2.5-100.3l-72.6-73.6L108.6,112l-70.9,73.3L36.4,290.3z"/>
<path d="M251.2,235l-78.4-79.2l22.5-110.2L306.6,25l68.4,78.6l-23.8,101.3L251.2,235z M185.2,152.1l69.3,70l87.2-26.3l20.9-89.1
	l-60.2-69.2l-97.4,18L185.2,152.1z"/>
</svg>
