<?xml version="1.0" encoding="utf-8"?>
<!-- Generator: Adobe Illustrator 24.1.2, SVG Export Plug-In . SVG Version: 6.00 Build 0)  -->
<svg version="1.1" id="Layer_1" xmlns="http://www.w3.org/2000/svg" xmlns:xlink="http://www.w3.org/1999/xlink" x="0px" y="0px"
	 viewBox="0 0 400 400" style="enable-background:new 0 0 400 400;" xml:space="preserve">
<style type="text/css">
	.st0{fill:#020202;}
	.st1{fill:#0066FF;}
</style>
<polygon class="st0" points="104.7,102.7 103.9,100.3 195.4,45.5 196.3,47.9 "/>
<polygon class="st0" points="298.3,292.4 295.9,291.5 348.8,204.1 351.2,204.9 "/>
<polygon class="st0" points="217.8,104.8 216.7,102.6 305.9,34.9 306.9,37.1 "/>
<polygon class="st0" points="292.3,185.3 290.2,184.1 365.9,99.4 368,100.6 "/>
<polygon class="st0" points="108.9,364.7 107.8,362.5 250.1,232.8 251.2,235 "/>
<polygon class="st0" points="37.1,292.2 36,290 172.8,155.6 174.3,157.4 "/>
<path class="st1" d="M106,375l-81-79.9l1.4-114.6l77.5-80.2l112.7,2l79.1,80.2l2.8,110l-80.6,79.1L106,375z M36.4,290.3l74.1,73
	l102.5-3.2l73.9-72.4l-2.5-100.3l-72.6-73.6L108.6,112l-70.9,73.3L36.4,290.3z"/>
<path class="st1" d="M251.2,235l-78.4-79.2l22.5-110.2L306.6,25l68.4,78.6l-23.8,101.3L251.2,235z M185.2,152.1l69.3,70l87.2-26.3
	l20.9-89.1l-60.2-69.2l-97.4,18L185.2,152.1z"/>
</svg>
