<svg id="Layer_1" data-name="Layer 1" xmlns="http://www.w3.org/2000/svg" viewBox="0 0 400 400"><defs><style>.cls-1{fill:#036;}.cls-2{fill:#06f;}</style></defs><polygon class="cls-1" points="104.7 101.7 103.9 100.3 195.4 45.5 196.3 46.9 104.7 101.7"/><polygon class="cls-1" points="298.3 292.4 296.9 291.5 349.8 204.1 351.2 204.9 298.3 292.4"/><polygon class="cls-1" points="217.8 103.8 216.7 102.6 305.9 34.9 306.9 36.1 217.8 103.8"/><polygon class="cls-1" points="292.3 185.3 291.2 184.1 366.9 99.4 368 100.6 292.3 185.3"/><polygon class="cls-1" points="108.9 364.7 107.8 363.5 250.1 233.8 251.2 235 108.9 364.7"/><polygon class="cls-1" points="37.1 291.2 36 290 172.8 155.6 173.9 156.8 37.1 291.2"/><path class="cls-2" d="M106,375,25,295.1l1.4-114.6,77.5-80.2,112.7,2,79.1,80.2,2.8,110-80.6,79.1ZM36.4,290.3l74.1,73L213,360.1l73.9-72.4-2.5-100.3-72.6-73.6L108.6,112,37.7,185.3Z"/><path class="cls-2" d="M251.2,235l-78.4-79.2L195.3,45.6,306.6,25,375,103.6,351.2,204.9Zm-66-82.9,69.3,70,87.2-26.3,20.9-89.1L302.4,37.5,205,55.5Z"/></svg>