<svg id="Layer_1" data-name="Layer 1" xmlns="http://www.w3.org/2000/svg" viewBox="0 0 610 445"><defs><style>.cls-1,.cls-17,.cls-4,.cls-5,.cls-7{fill:none;}.cls-1,.cls-17,.cls-4,.cls-5,.cls-6,.cls-7{stroke:#9bcef0;stroke-miterlimit:10;}.cls-1,.cls-4,.cls-5,.cls-6,.cls-7{stroke-width:2px;}.cls-1{stroke-dasharray:5.02 5.02;}.cls-2{fill:#fff;}.cls-3{fill:#b2dfff;}.cls-5{stroke-dasharray:5.03 5.03;}.cls-6,.cls-8{fill:#9bcef0;}.cls-7{stroke-dasharray:5;}.cls-9{fill:#ccd8e2;}.cls-10{fill:#001139;}.cls-11{fill:#004e75;}.cls-12{fill:#007298;}.cls-13{fill:#e0f3ff;}.cls-14{fill:#ffaa64;}.cls-15{fill:#0094c8;}.cls-16{fill:#00adff;}.cls-17{stroke-linecap:round;stroke-width:4px;}</style></defs><ellipse class="cls-1" cx="295.4" cy="193.2" rx="154" ry="149.5"/><circle class="cls-2" cx="302.5" cy="46.3" r="38.1"/><path class="cls-3" d="M326.9,50.7a25.1,25.1,0,1,1,.2-7H331a28.9,28.9,0,1,0-.2,7Z"/><path class="cls-3" d="M285.8,57.9a19.6,19.6,0,0,1,2.1-25.3A19.8,19.8,0,1,1,289.6,62l-2.2,2.2a23,23,0,1,0-3.8-4.1Z"/><path class="cls-3" d="M316.2,49.2a14.5,14.5,0,1,1-.3-6.3h3a17.5,17.5,0,1,0,.2,6.3Z"/><path class="cls-3" d="M313.2,46.9a11.4,11.4,0,1,1-11.4-11.5A11.4,11.4,0,0,1,313.2,46.9Z"/><path class="cls-3" d="M302.2,11.2a35.2,35.2,0,0,0-35,31.9H271a31.5,31.5,0,1,1,.4,9.2h-3.9a35.2,35.2,0,1,0,34.7-41.1Z"/><line class="cls-4" x1="93.5" y1="198.5" x2="96" y2="198.5"/><line class="cls-5" x1="101.1" y1="198.5" x2="158.9" y2="198.5"/><line class="cls-4" x1="161.4" y1="198.5" x2="163.9" y2="198.5"/><path class="cls-6" d="M93.7,198.5a2.9,2.9,0,1,1-5.7,0,2.9,2.9,0,0,1,5.7,0Z"/><circle class="cls-6" cx="130.8" cy="40.4" r="2.8"/><path class="cls-6" d="M505.2,55.1a2.9,2.9,0,1,1-2.9-2.8A2.8,2.8,0,0,1,505.2,55.1Z"/><line class="cls-4" x1="499.4" y1="193.2" x2="496.9" y2="193.2"/><line class="cls-5" x1="491.9" y1="193.2" x2="434.1" y2="193.2"/><line class="cls-4" x1="431.6" y1="193.2" x2="429.1" y2="193.2"/><circle class="cls-6" cx="502.1" cy="193.3" r="2.8"/><polyline class="cls-7" points="132.7 40.7 220.9 40.7 220.9 102"/><polyline class="cls-7" points="499.1 55.1 387 55.1 387 102.9"/><path class="cls-3" d="M589.7,391.6H34.3a10.2,10.2,0,0,1-10.2-10.2h0a10.2,10.2,0,0,1,10.2-10.2H589.7a10.2,10.2,0,0,1,10.2,10.2h0A10.2,10.2,0,0,1,589.7,391.6Z"/><rect class="cls-3" x="188.2" y="334.2" width="224.7" height="17.66" rx="7.5"/><rect class="cls-8" x="158.8" y="351.7" width="274.8" height="19.58" rx="8.1"/><path class="cls-3" d="M110.7,26.8A83.2,83.2,0,0,1,81.3,89.9L74,96l-.5-.3L66.8,90C48.4,74.7,38.1,50.9,38.1,27h0L73.5,5.7Z"/><path class="cls-8" d="M110.7,26.8A83.2,83.2,0,0,1,81.3,89.9L74,96l-.5-.3V87.4l.6.4,6-5a69,69,0,0,0,24.3-52.2L73.7,13.2h-.2V5.7Z"/><path class="cls-9" d="M104.4,30.6A69,69,0,0,1,80.1,82.8l-6,5-.6-.4V13.3h.2Z"/><path class="cls-2" d="M73.5,13.3V87.4l-5.4-4.6c-15.2-12.7-23.7-32.3-23.7-52h0Z"/><path class="cls-2" d="M86.1,43.6A12.4,12.4,0,0,0,73.8,31.4h-.4a12.5,12.5,0,0,0-12,12.2H61a3.1,3.1,0,0,0-3.1,3.1v8.5A11.4,11.4,0,0,0,69.2,66.6h8.6A11.4,11.4,0,0,0,89.1,55.2V46.7A3.1,3.1,0,0,0,86.1,43.6Zm-18.9,0A6.6,6.6,0,0,1,73.4,37h.4a6.5,6.5,0,0,1,6.6,6.6Z"/><path class="cls-9" d="M67.2,43.6h6.2v23H69.2A11.4,11.4,0,0,1,57.9,55.2V46.7A3.1,3.1,0,0,1,61,43.6h.4a12.5,12.5,0,0,1,12-12.2V37A6.6,6.6,0,0,0,67.2,43.6Z"/><path class="cls-10" d="M257.8,334.3h42a15.9,15.9,0,0,0,15.8-15.9H267.4a9.6,9.6,0,0,0-9.6,9.6Z"/><rect class="cls-11" x="267.8" y="260.6" width="49.3" height="58.29"/><path class="cls-12" d="M172.9,252H409.4a0,0,0,0,1,0,0v12.7a19,19,0,0,1-19,19H191.9a19,19,0,0,1-19-19V252A0,0,0,0,1,172.9,252Z"/><path class="cls-11" d="M183.3,103.7H409.2a0,0,0,0,1,0,0V253.9a0,0,0,0,1,0,0H172.7a0,0,0,0,1,0,0V114.3A10.6,10.6,0,0,1,183.3,103.7Z"/><rect class="cls-12" x="275.4" y="260.6" width="49.3" height="58.29"/><path class="cls-10" d="M184.1,252H420.6a0,0,0,0,1,0,0v12.7a19,19,0,0,1-19,19H203.1a19,19,0,0,1-19-19V252A0,0,0,0,1,184.1,252Z"/><path class="cls-12" d="M193.7,103.7H410.9a9.6,9.6,0,0,1,9.6,9.6V253.9a0,0,0,0,1,0,0H184.1a0,0,0,0,1,0,0V113.3A9.6,9.6,0,0,1,193.7,103.7Z"/><rect class="cls-13" x="196" y="113.7" width="213.3" height="130.08"/><path class="cls-11" d="M332.8,334.3h-42A15.9,15.9,0,0,1,275,318.4h48.2a9.6,9.6,0,0,1,9.6,9.6Z"/><ellipse class="cls-3" cx="300.2" cy="181.4" rx="41.2" ry="39.5"/><path class="cls-12" d="M300.7,133.4h0a22.1,22.1,0,0,0-22.1,22.1v23.7h44.2V155.5A22.1,22.1,0,0,0,300.7,133.4Zm11.9,35h-24V155.6a12,12,0,0,1,12-12h0a12,12,0,0,1,12,12Z"/><path class="cls-10" d="M305.3,133.4h0a22.1,22.1,0,0,0-22.2,22.1v23.7h44.3V155.5A22.1,22.1,0,0,0,305.3,133.4Zm11.8,35H293.2V155.6a11.9,11.9,0,0,1,11.9-12h0a12,12,0,0,1,12,12Z"/><path class="cls-12" d="M268.7,163.9H329a0,0,0,0,1,0,0v32.3a30.2,30.2,0,0,1-30.2,30.2h0a30.2,30.2,0,0,1-30.2-30.2V163.9A0,0,0,0,1,268.7,163.9Z"/><path class="cls-10" d="M273.9,163.9h61.9a0,0,0,0,1,0,0v31.5a30.9,30.9,0,0,1-30.9,30.9h0a30.9,30.9,0,0,1-30.9-30.9V163.9A0,0,0,0,1,273.9,163.9Z"/><path class="cls-12" d="M308.9,190.1l3.4,11.3H301.1l3.4-11.3a6.8,6.8,0,0,1-3.4-5.7,6.1,6.1,0,0,1,4.8-5.8H307a5.9,5.9,0,0,1,5.9,5.9A6,6,0,0,1,308.9,190.1Z"/><path class="cls-13" d="M306.7,190.1l3.4,11.3h-9l3.4-11.3a6.8,6.8,0,0,1-3.4-5.7,4.9,4.9,0,1,1,9.6,0A6,6,0,0,1,306.7,190.1Z"/><polyline class="cls-4" points="346.3 168.7 364.2 168.7 371.3 161.5 382.9 161.5"/><line class="cls-4" x1="346.3" y1="178.8" x2="372.7" y2="178.8"/><path class="cls-8" d="M384.3,161.5a2.7,2.7,0,1,1-2.7-2.7A2.7,2.7,0,0,1,384.3,161.5Z"/><polyline class="cls-4" points="347.3 189 365.1 189 372.3 196.1 383.8 196.1"/><circle class="cls-8" cx="382.6" cy="196.2" r="2.7"/><path class="cls-8" d="M375.4,178.8a2.7,2.7,0,1,1-2.7-2.7A2.7,2.7,0,0,1,375.4,178.8Z"/><polyline class="cls-4" points="255.5 170.8 237.6 170.8 230.5 163.7 219 163.7"/><line class="cls-4" x1="255.5" y1="180.9" x2="229.1" y2="180.9"/><path class="cls-8" d="M217.5,163.6a2.7,2.7,0,1,0,2.7-2.7A2.7,2.7,0,0,0,217.5,163.6Z"/><polyline class="cls-4" points="254.5 191.1 236.7 191.1 229.5 198.2 218 198.2"/><path class="cls-8" d="M216.5,198.3a2.7,2.7,0,1,1,2.7,2.7A2.7,2.7,0,0,1,216.5,198.3Z"/><path class="cls-8" d="M226.5,180.9a2.7,2.7,0,0,0,2.7,2.7,2.7,2.7,0,1,0,0-5.4A2.7,2.7,0,0,0,226.5,180.9Z"/><circle class="cls-8" cx="555.5" cy="32.8" r="17.3"/><path class="cls-2" d="M559.3,23.5a3.6,3.6,0,0,1-7.1,0,3.6,3.6,0,0,1,7.1,0Z"/><path class="cls-8" d="M550.7,48.6v8.6a1.4,1.4,0,0,0,.7,1.3l.3.2a1.4,1.4,0,0,1,.2,2.3l-.7.5a1.6,1.6,0,0,0-.5,1.1V64a1.3,1.3,0,0,0,.9,1.3h0a1.5,1.5,0,0,1,.5,2.5l-.6.4a1.6,1.6,0,0,0-.5,1.1v1.8a1.6,1.6,0,0,1-.5,1.1L548.3,74a1.6,1.6,0,0,0-.5,1.1v2.3a1.4,1.4,0,0,0,1.4,1.4h8.5a1.2,1.2,0,0,0,.9-.5l3-2.9a1.5,1.5,0,0,0,.4-1V48.6a1.5,1.5,0,0,0-1.4-1.4h-8.5A1.4,1.4,0,0,0,550.7,48.6Z"/><polyline class="cls-4" points="567.5 53.6 581.6 53.6 587.3 47.9 596.4 47.9"/><line class="cls-4" x1="567.5" y1="61.6" x2="588.4" y2="61.6"/><path class="cls-8" d="M597.6,47.9a2.1,2.1,0,0,1-2.2,2.1,2.1,2.1,0,0,1-2.1-2.1,2.1,2.1,0,0,1,2.1-2.2A2.2,2.2,0,0,1,597.6,47.9Z"/><polyline class="cls-4" points="568.2 69.7 582.4 69.7 588 75.3 597.2 75.3"/><circle class="cls-8" cx="596.2" cy="75.4" r="2.1"/><path class="cls-8" d="M590.5,61.6a2.1,2.1,0,0,1-2.2,2.1,2.1,2.1,0,1,1,0-4.2A2.1,2.1,0,0,1,590.5,61.6Z"/><polyline class="cls-4" points="546.9 53.8 532.8 53.8 527.1 48.1 518 48.1"/><line class="cls-4" x1="546.9" y1="61.8" x2="526" y2="61.8"/><path class="cls-8" d="M516.8,48.1a2.1,2.1,0,0,0,2.2,2.1,2.1,2.1,0,0,0,2.1-2.1,2.1,2.1,0,0,0-2.1-2.2A2.2,2.2,0,0,0,516.8,48.1Z"/><polyline class="cls-4" points="546.2 69.9 532 69.9 526.4 75.5 517.2 75.5"/><circle class="cls-8" cx="518.2" cy="75.6" r="2.1"/><path class="cls-8" d="M523.9,61.8a2.2,2.2,0,0,0,2.2,2.2,2.1,2.1,0,0,0,2.1-2.2,2.1,2.1,0,0,0-2.1-2.1A2.1,2.1,0,0,0,523.9,61.8Z"/><path class="cls-8" d="M66.4,192.4H10.9A6.8,6.8,0,0,1,6.6,181l27.1-28.9a7.4,7.4,0,0,1,10.5,0L71.4,181a6.8,6.8,0,0,1-4.3,11.4Z"/><path class="cls-2" d="M22.3,171.8H55.9a6.1,6.1,0,0,1,6.1,6.1v25.4a0,0,0,0,1,0,0H16.2a0,0,0,0,1,0,0V177.9A6.1,6.1,0,0,1,22.3,171.8Z"/><path class="cls-3" d="M65.4,224.1H12.5a8,8,0,0,1-8-8V186.2c0-4.4,3.6,5,8,5H65.4c4.4,0,8-9.4,8-5v29.9A8,8,0,0,1,65.4,224.1Z"/><path class="cls-8" d="M25.5,221.8l41-30.6S42.8,218.9,25.5,221.8Z"/><path class="cls-8" d="M53.9,221.1,11.6,191.3S36.3,218.7,53.9,221.1Z"/><path class="cls-9" d="M45,181.6a5.8,5.8,0,0,1-5.8,5.8,5.8,5.8,0,0,1,0-11.5A5.8,5.8,0,0,1,45,181.6Z"/><rect class="cls-9" x="36" y="186.1" width="1.9" height="2.63"/><rect class="cls-9" x="38.2" y="186.6" width="1.9" height="2.63"/><rect class="cls-9" x="40.4" y="186.1" width="1.9" height="2.63"/><path class="cls-2" d="M35.4,181.1l2.8,1.2a1.1,1.1,0,0,1-1.1,1.1C36,183.5,35.1,182.7,35.4,181.1Z"/><path class="cls-2" d="M43,181.1l-2.9,1.2a1.3,1.3,0,0,0,1.2,1.2C42.4,183.5,43.3,182.7,43,181.1Z"/><polygon class="cls-2" points="39.1 183.6 38.5 185 39.8 185 39.1 183.6"/><polygon class="cls-9" points="34.6 179.6 31.9 179.1 30.5 176.8 29.8 177.1 31.2 180 34.4 180.6 34.6 179.6"/><polygon class="cls-9" points="34.5 185 31.9 185.5 30.4 187.9 29.8 187.5 31.2 184.6 34.4 184.1 34.5 185"/><polygon class="cls-9" points="34.3 181.6 30.1 181.5 27 183.4 27.3 183.9 30.5 182.5 34.5 182.9 34.3 181.6"/><polygon class="cls-9" points="43.5 179.6 46.1 179.1 47.6 176.7 48.2 177.1 46.8 180 43.7 180.5 43.5 179.6"/><polygon class="cls-9" points="43.5 185 46.1 185.5 47.6 187.9 48.2 187.5 46.8 184.6 43.7 184 43.5 185"/><polygon class="cls-9" points="43.8 181.5 48 181.5 51.1 183.3 50.8 183.9 47.6 182.5 43.5 182.9 43.8 181.5"/><ellipse class="cls-3" cx="70" cy="432.8" rx="27" ry="3.9"/><path class="cls-14" d="M89,301.6l3.2-2.8a37.6,37.6,0,0,1,1.1-3.8,24.9,24.9,0,0,1,1.5-2.8c.4-.9,1.2.6.4,2.3,0,0,2.4-1.7,2.5-1.9s.5-1.4,1.4-1.7.3,2.2-.3,2.8.8,1.5.5,2.1a3.9,3.9,0,0,0-.5,2c.1.6-.1,1-1.5,1.8s-5.1,4.5-5.1,4.5A17.7,17.7,0,0,1,89,301.6Z"/><path class="cls-15" d="M60.7,290.4s-1.8.9.8,7,12.7,15.4,19.1,17.1,13-11.7,13-11.7l-4.2-2.5-8.6,6.9s-14.5-15.4-16.6-16.8A2.7,2.7,0,0,0,60.7,290.4Z"/><polygon class="cls-10" points="95.4 288.5 91.9 313.8 108.4 314.1 111.9 288.7 95.4 288.5"/><path class="cls-14" d="M73.8,265.5s3.1.7,3.2,5.5,1.4,5.4,1.4,5.4-.8,4.8-2,6-4.1,1.1-4.1,1.1l-.7,3.3H63.4l.9-9.9S70.9,265.8,73.8,265.5Z"/><path class="cls-10" d="M76.6,263a6.2,6.2,0,0,1,1.7,6.1,5.2,5.2,0,0,1-4.8,3.6s.3,2.5-1.1,3-.8-2-2.1-1.8-2.2,3.4-1.2,5.1a2.3,2.3,0,0,0,2.5,1.3s.3,2.4-2.8,2.7-7.7.6-10.5-5a11.4,11.4,0,0,1,0-10.2,4.4,4.4,0,0,1-4.2-.5c-2-1.5-.6-7.4,3.1-8.3s4.6,4.3,4.6,4.3S68.9,257.7,76.6,263Z"/><path class="cls-16" d="M80,312.8c-.4,6.7-1.2,12.1-1.2,12.1H77l-18.9-.2s-4.4-27.3-4-32.5,8.2-6.8,8.2-6.8,10.7.2,14.4,2.6S80.6,303.1,80,312.8Z"/><path class="cls-16" d="M75.6,288.4s-2.1.2-2,6.8,6,19,11.4,23,16.4-5.9,16.4-5.9l-2.9-4-10.6,3.2s-7.7-19.7-9.1-21.8A2.7,2.7,0,0,0,75.6,288.4Z"/><path class="cls-14" d="M98.8,308.6l3.8-1.8s1.5-2.6,2.1-3.4,1.7-1.6,2.3-2.2,1,.9-.2,2.3l2.9-1.1c.3-.2.9-1.2,1.8-1.2s-.3,2.2-1.1,2.6.4,1.6-.1,2.1a6.6,6.6,0,0,0-1,1.8c-.1.6-.4.9-2,1.2s-6.2,3-6.2,3A22.5,22.5,0,0,1,98.8,308.6Z"/><path class="cls-15" d="M80,312.8c-.4,6.7-1.2,12.1-1.2,12.1H77l.7-10.4c-3.9-5.6-4.3-15.5-4.3-15.5l6,12.1Z"/><path class="cls-10" d="M79,324.3s7.2,15.6-.5,55.5H57.7S53.6,355,53.8,343s4.3-18.3,4.3-18.3Z"/><path class="cls-10" d="M68.5,370.7s-1.2,17.9,3.4,57.9h5.8l.5-55.2Z"/><path class="cls-10" d="M60.8,368.4s-4.5,19.6-5.1,56.4l4.9,1.9,8.7-54.6Z"/><path class="cls-16" d="M71.6,427.9s-1,5-.6,5.6,6.6.5,8.3.1,4.3.4,6.4-.7-8.1-4.7-8.1-4.7Z"/><path class="cls-16" d="M55.5,423.6s-3,4.1-2.9,4.8,5.8,3.2,7.5,3.5,3.8,2.1,6.1,2-5.4-7.6-5.4-7.6Z"/><ellipse class="cls-3" cx="140.5" cy="431.2" rx="27" ry="3.9"/><path class="cls-14" d="M128.6,259.6s-3.3.9-3.1,6-1.1,5.9-1.1,5.9,1.1,5,2.5,6.2,4.4.9,4.4.9l.9,3.5,8.8-.5-1.6-10.4S131.7,259.7,128.6,259.6Z"/><path class="cls-10" d="M135.7,254.4c-4.4-.5-13.7,3.3-14.4,4.4s4,3.5,8.6,4.4c0,0-.9,2.7.8,4.2,0,0,.2,2.6,1,3.3s.2-2.5,1.6-2.5,1.8,2.9,1.5,4.9a2,2,0,0,1-2.2,1.9s4.4,2.8,7.6,1.9c0,0,5.6-7.8,5.3-11.9s-3.3-5.8-3.3-5.8S141.4,254.9,135.7,254.4Z"/><path class="cls-16" d="M150.9,309.9c-1.4,12.4-2.3,22.7-2.3,22.7l-20.4.4h-2.7l-1.2-10.5c-1.3-12.5-3.4-32.1-3.1-33.5s7.4-4.2,7.4-4.2l.3-2.3s.2-.6,5.5-2.1,7.9-.4,7.9-.4l.3,2.1s6.6,4.1,8,4.8S152.2,297.5,150.9,309.9Z"/><path class="cls-15" d="M130,316.5c-2.8,6.7-1.9,15.7-1.8,16.5h-2.7l-1.2-10.5v-.4l6.6-25S133,309.5,130,316.5Z"/><path class="cls-16" d="M121.7,288.3c-3.1,2.1-4.7,32-4.7,32l-15.4,5.1,1.8,6.2s14.1-.4,18.7-4.2,8.8-30.2,8.8-30.2S126.2,285.3,121.7,288.3Z"/><polygon class="cls-10" points="124.9 331.8 124.2 347.2 128.3 420.9 138.6 420.7 137.9 346.3 138.9 345.2 141.6 377 148.6 420.7 158.6 419.3 153.6 375.2 148.6 332.2 124.9 331.8"/><path class="cls-10" d="M129.4,419.1l.3,4s-8.7,5.5-9,6.4,7.2,1,9.1.9,6.4.6,8.9-.1l-1.4-11.4Z"/><path class="cls-10" d="M149.5,418.7l.6,3.9s-8,6.4-8.2,7.4,7.2.2,9.1-.1,6.5-.1,8.9-1l-2.6-11.3Z"/><path class="cls-14" d="M102,326.3l-2.3.6a16.3,16.3,0,0,0-3.5-.6c-1.4,0-2.4.1-2.2.5s2.4.8,3,1.1-3.1,1.2-3.8,1.2-3-.1-3,.3,2.1,1.2,3.1,1.2a3.8,3.8,0,0,1-1.7.3c-.8-.2-.5-1.1-1.2-.6s0,1.8.7,2,.8,1.4,1.3,1.5a7.3,7.3,0,0,1,2,.5,2.8,2.8,0,0,0,2,.1,7.5,7.5,0,0,0,1.9-.9,15.5,15.5,0,0,0,2.9-2.3l2-.6Z"/><path class="cls-3" d="M604.5,436.9c0,2.2-12.4,3.9-27.6,3.9s-27.6-1.7-27.6-3.9,12.4-4,27.6-4S604.5,434.7,604.5,436.9Z"/><path class="cls-11" d="M546.1,332H504.4l-5.7-25.4a2.8,2.8,0,0,1,2.8-3.5h33.3a5.9,5.9,0,0,1,5.8,4.6Z"/><path class="cls-13" d="M543,329.8H507.1l-4.8-21a2.4,2.4,0,0,1,2.4-3h28.6a5.1,5.1,0,0,1,5,3.9Z"/><rect class="cls-12" x="504.4" y="332" width="48.8" height="4.02"/><path class="cls-8" d="M568.5,341.4H488.2a2.6,2.6,0,0,1-2.6-2.6h0a2.6,2.6,0,0,1,2.6-2.7h80.3a2.7,2.7,0,0,1,2.7,2.7h0A2.7,2.7,0,0,1,568.5,341.4Z"/><path class="cls-17" d="M480,427.6l17.1-78.2c2-9.6,12.6-9.7,14.6-.1L522.6,427"/><path class="cls-17" d="M545.4,424.9l12-77.3c1.9-9.6,12.6-9.7,14.6-.1l16.1,76.8"/><path class="cls-14" d="M547.7,291.7s-.8-1.6-1.6-1.9-2.2-.7-2.8-1.6a8.1,8.1,0,0,1-1-3.3c0-.5,1.1.3,1.2.7l.5,1.1s.3-4.4,0-5.2-.8-1.1-.6-1.6.8-.1,1.2.3,1.2,1.9,1.4,2,.7-.1,1.4.3,1.2.5,1.7.9.6,1.1.7,1.6a22.5,22.5,0,0,1,0,2.6,17.9,17.9,0,0,0,.9,1.9Z"/><path class="cls-10" d="M568.9,310.7s-14.4-7.1-17.1-10.1-6.1-6.2-4-9.6,4.8-2.4,5.9-1.6,5.5,6.2,7.2,6.9,7.8-.7,10,2.7S571.4,310.5,568.9,310.7Z"/><path class="cls-14" d="M535.5,327.7a27.8,27.8,0,0,1-4.5-3c-1.2-1.2-2-2.6-4.2-3s-4.2.5-4.2,1.1,2.1.3,2.1.3h.8s-2.9.3-3.3.8a2.6,2.6,0,0,0-.5,1,2.3,2.3,0,0,0-.3,1c0,.5-.3.8.2,1.2s1.2-.7,1.2-.7,2.3,2.4,3.9,2.9a3.3,3.3,0,0,0,2.4.1,6.5,6.5,0,0,0,3.6,2.1C535.3,332.2,535.5,327.7,535.5,327.7Z"/><path class="cls-16" d="M560.2,296.5s-3.9,3-5.1,5,2.9,30.3,2.9,30.3l1,11.7,26.9-1.1s1.2-37.4-4.2-44.3S560.2,296.5,560.2,296.5Z"/><path class="cls-14" d="M561.7,270.8s-3.2.8-3.3,5.6S557,282,557,282s.8,4.9,2,6.1,4.2,1.1,4.2,1.1l.7,3.3h8.4l-.9-10S564.6,271.1,561.7,270.8Z"/><path class="cls-10" d="M561.3,293.7s11.6-5.7,15.4-5.1,2.8,3.9,2.8,3.9,5,.1,4.5,4.8-14-1.4-18.2-1-6.1,1.7-6.8.5S559.9,294.5,561.3,293.7Z"/><path class="cls-10" d="M561,273.5a7.4,7.4,0,0,0,.4,3.1,3.7,3.7,0,0,0,2.1,2.6s-.7,2.5,0,2.9.8-2.4,1.8-2.6,1.8,1.4,1.5,3.3a2.6,2.6,0,0,1-1.8,2.4c-.5.1,1.9,3.2,6.7,2.2s7.7-10,4.5-13.9c0,0,.9-3-4.3-4.9s-10.6-2.9-13-1.9,0,3,0,3-1.7.2-1.9,1.1S558.2,273.5,561,273.5Z"/><path class="cls-10" d="M555.1,301.5s3.7,1.7,5.9,10.8-2.5,19.8-5.9,22.7-18.1.9-21.5-1.8-.4-5.9,1.3-6.2,11.5.6,11.5.6.2-1.6,1.1-1.9,2.5-2.3,3.7-8.5S551.5,307,555.1,301.5Z"/><path class="cls-10" d="M559,343.5l.3,3,26.7-.2v-3.9S578.4,340.6,559,343.5Z"/><polygon class="cls-10" points="559.3 346.4 560.8 360.4 565.9 427.4 578.1 426.8 574.8 359.4 575.8 358.4 578.6 390.8 585.8 426.8 597.3 425.8 590.9 389 585.8 345 559.3 346.4"/><path class="cls-10" d="M568,426.3l.2,4.1s-8.8,5.7-9.1,6.6,7.3,1,9.3.9,6.6.6,9.1-.1L576,426.1Z"/><path class="cls-10" d="M587.5,424.4l.6,4.1s-8.2,6.5-8.4,7.5,7.4.3,9.3-.1,6.6-.1,9.1-1l-2.7-11.5Z"/><ellipse class="cls-3" cx="463.9" cy="437.2" rx="26.6" ry="3.8"/><path class="cls-14" d="M467.6,272.5s3,.7,3.1,5.3,1.4,5.4,1.4,5.4-.8,4.7-1.9,5.9-4,1.1-4,1.1l-.7,3.2h-8.1l.8-9.7S464.8,272.8,467.6,272.5Z"/><path class="cls-14" d="M462.4,376s-1.2,17.6,3.3,57h5.8l.5-54.4Z"/><path class="cls-14" d="M454.8,373.8s-4.4,19.3-5,55.5l4.8,1.8,8.6-53.7Z"/><path class="cls-16" d="M473.7,319c-.4,6.6-1.1,11.9-1.1,11.9H452.1s-4.3-27-3.9-32,8.1-6.7,8.1-6.7,10.6.1,14.2,2.5S474.3,309.4,473.7,319Z"/><path class="cls-10" d="M472.7,330.3s7.1,15.4-.4,54.6H451.7s-4-24.3-3.8-36.1,4.2-18,4.2-18Z"/><path class="cls-10" d="M465.5,432.4s-1.1,4.9-.6,5.4,6.4.6,8.1.2,4.2.3,6.3-.7-8-4.6-8-4.6Z"/><path class="cls-10" d="M449.6,428.1s-3,4-2.8,4.7,5.7,3.2,7.3,3.5,3.7,2,6,1.9-5.3-7.4-5.3-7.4Z"/><path class="cls-14" d="M492.9,336.5a13.7,13.7,0,0,0,3.9.9c1.5,0,5.7-1.7,7.1-1.7s2.7.7,3,.1-2.8-2.1-3.3-2.2a11.6,11.6,0,0,1-2.4-1.4c-.4-.4-5.9.2-5.9.2Z"/><path class="cls-16" d="M469,295.4s-2.5,3.4-2.3,11.9,2.5,21.4,5.4,25.6,21,5,21,5l3.3-6.1-18.5-5.6s-3.3-26.9-5.4-29.2S469,295.4,469,295.4Z"/><path class="cls-10" d="M466.8,276.2s.5,1.5-1.3,3.6a3.2,3.2,0,0,1-.3,2.4c-.8,1.2.1-2.1-2.3-2s-1.5,4.1-.9,4.7a3,3,0,0,0,1.9.7s1.5,6.7-.2,12.6-11,4.9-14.2.6.1-12.2,1.8-17.1,1.8-12,8.5-13.4,10.9-.6,12.8,3.6.2,6.1-.5,6.5-2.8-1.6-2.8-1.6Z"/><rect class="cls-8" x="511.7" y="153.2" width="44.4" height="69.88" rx="5.3"/><rect class="cls-9" x="511.7" y="163.7" width="44.4" height="48.3"/><rect class="cls-2" x="518.2" y="170.4" width="5.7" height="5.54"/><rect class="cls-2" x="531.8" y="170.4" width="5.7" height="5.54"/><rect class="cls-2" x="544.3" y="170.4" width="5.7" height="5.54"/><rect class="cls-2" x="518.2" y="183.3" width="5.7" height="5.54"/><rect class="cls-2" x="531.8" y="183.3" width="5.7" height="5.54"/><rect class="cls-2" x="544.3" y="183.3" width="5.7" height="5.54"/><rect class="cls-2" x="518.2" y="195.9" width="5.7" height="5.54"/><rect class="cls-2" x="531.8" y="195.9" width="5.7" height="5.54"/><rect class="cls-2" x="544.3" y="195.9" width="5.7" height="5.54"/><path class="cls-2" d="M540.9,159.4H527.6a.8.8,0,0,1-.8-.7h0a.8.8,0,0,1,.8-.8h13.3a.8.8,0,0,1,.8.8h0A.8.8,0,0,1,540.9,159.4Z"/><path class="cls-2" d="M537.1,217.5a3.2,3.2,0,0,1-6.3,0,3.2,3.2,0,1,1,6.3,0Z"/><circle class="cls-8" cx="584.9" cy="187.5" r="9.9"/><path class="cls-2" d="M590.3,185.3a2,2,0,0,0-2,2.1,2,2,0,0,0,4,0A2,2,0,0,0,590.3,185.3Z"/><path class="cls-8" d="M575.8,190.3h-4.9a.8.8,0,0,1-.7-.4v-.3a.8.8,0,0,0-1.4,0l-.2.3a1,1,0,0,1-.7.4H567c-.3,0-.6-.3-.8-.6h0a.7.7,0,0,0-1.3-.3l-.3.4a.9.9,0,0,1-.6.3h-1.1l-.6.3-1,1.2a.9.9,0,0,1-.6.3h-1.3a.8.8,0,0,1-.9-.8v-4.8a.6.6,0,0,1,.3-.6l1.7-1.7.5-.2h14.8a.7.7,0,0,1,.8.8v4.9A.8.8,0,0,1,575.8,190.3Z"/></svg>